<svg width="47" height="48" viewBox="0 0 47 48" fill="none" xmlns="http://www.w3.org/2000/svg">
<ellipse cx="23.4995" cy="24.4999" rx="21.9643" ry="21.953" fill="black"/>
<path d="M23.5 0.926331C10.5217 0.926331 0 11.4241 0 24.3722C0 37.3204 10.5217 47.8181 23.5 47.8181C36.4783 47.8181 47 37.3204 47 24.3722C47 11.4241 36.4783 0.926331 23.5 0.926331ZM45.4716 24.3722C45.4716 36.4781 35.6334 46.293 23.5 46.293C11.3666 46.293 1.52837 36.4781 1.52837 24.3722C1.52837 12.2664 11.3666 2.45068 23.5 2.45068C35.6334 2.45068 45.4716 12.2664 45.4716 24.3722Z" fill="white"/>
<path d="M34.8885 14.4247C35.208 14.7672 35.6677 15.3191 35.9265 15.6536L40.6848 12.6401C40.4472 12.33 40.0679 11.8588 39.7858 11.5259L36.7721 13.514L36.566 13.6904L36.7195 13.4699L38.0505 10.824L37.1091 9.87881L34.4522 11.2062L34.2285 11.3591L34.4061 11.154L36.4001 8.14867C36.0493 7.851 35.7123 7.57832 35.2832 7.24758L32.2616 11.9911C32.6453 12.2851 33.1497 12.7158 33.4706 13.0098L36.3146 11.5399L36.4966 11.4054L36.3636 11.584L34.8893 14.4239L34.8885 14.4247ZM24.0906 8.41326L25.3909 5.50788L25.4735 5.2499L25.4501 5.51817L25.5868 9.40181C26.0429 9.44517 26.5143 9.50838 26.9755 9.58555L26.7643 3.83433C26.1145 3.76083 25.4684 3.71158 24.8215 3.68365L23.5431 6.85583L23.4978 7.09103L23.4525 6.85583L22.1734 3.68365C21.5258 3.71158 20.8796 3.7623 20.2298 3.83433L20.0193 9.58555C20.4835 9.50765 20.9542 9.44591 21.4081 9.40181L21.5448 5.51817L21.5214 5.2499L21.6047 5.50714L22.9043 8.41326H24.0906ZM13.5748 12.9973C14.3261 12.2072 14.7515 11.2944 14.0001 10.4249C13.5916 9.95231 12.9038 9.84868 12.3351 10.0817L12.2781 10.1037L12.2964 10.0545C12.3811 9.82957 12.4352 9.11296 11.8227 8.61758C11.5247 8.38333 11.1464 8.27759 10.7709 8.32359C10.0648 8.39709 9.5225 8.87703 8.04383 10.5212C7.59724 11.0173 6.94745 11.8008 6.55859 12.3079L10.6189 16.1511C11.9645 14.665 12.5134 14.1123 13.5748 12.9973ZM8.27627 12.0573C9.09344 11.0585 9.96251 10.153 10.3565 9.79502C10.475 9.67294 10.6205 9.58077 10.7812 9.52602C10.8462 9.51112 10.9136 9.50939 10.9793 9.52093C11.045 9.53247 11.1078 9.55705 11.164 9.59324C11.2202 9.62942 11.2687 9.6765 11.3066 9.73171C11.3445 9.78692 11.3711 9.84917 11.3849 9.91483C11.4478 10.189 11.2745 10.4499 11.0823 10.6645C10.6503 11.1518 9.06421 12.807 9.06421 12.807L8.27627 12.0588V12.0573ZM9.86603 13.5625C9.86603 13.5625 11.4112 11.9331 11.9126 11.412C12.1129 11.2047 12.2408 11.079 12.3797 11.0114C12.4633 10.9634 12.5584 10.9392 12.6547 10.9413C12.751 10.9433 12.8449 10.9716 12.9264 11.0232C13.0084 11.0763 13.0722 11.1533 13.1093 11.244C13.1465 11.3347 13.1551 11.4346 13.134 11.5303C13.0828 11.7633 12.8913 11.9853 12.7349 12.155L10.6883 14.3416L9.86603 13.5625Z" fill="white"/>
<path d="M37.4342 24.3721H23.4983V10.4678C31.2001 10.4678 37.4342 16.6879 37.4342 24.3721ZM23.4983 24.3721V38.2758C15.7966 38.2758 9.5625 32.0556 9.5625 24.3721H23.4983Z" fill="white"/>
<path d="M23.4983 10.4678V24.3721H9.5625C9.5625 16.6879 15.7966 10.4678 23.4983 10.4678ZM37.4342 24.3721C37.4342 32.0564 31.2001 38.2758 23.4983 38.2758V24.3721H37.4342Z" fill="#0066B1"/>
</svg>
