<svg width="19" height="19" viewBox="0 0 19 19" fill="none" xmlns="http://www.w3.org/2000/svg">
<g clip-path="url(#clip0_128_269)">
<path d="M4.31316 19V6.18068H0.240297V19H4.31316ZM2.27725 4.42937C3.69753 4.42937 4.58159 3.445 4.58159 2.21486C4.55512 0.956988 3.69759 -6.10352e-05 2.30421 -6.10352e-05C0.911043 -6.10352e-05 0 0.957007 0 2.21486C0 3.44506 0.883837 4.42937 2.25066 4.42937H2.27713H2.27725ZM6.56747 19H10.6403V11.841C10.6403 11.4579 10.6668 11.0752 10.7743 10.8013C11.0688 10.0358 11.7389 9.24296 12.864 9.24296C14.3378 9.24296 14.9274 10.4185 14.9274 12.1418V18.9999H19V11.6494C19 7.71183 16.9907 5.87972 14.311 5.87972C12.1139 5.87972 11.1492 7.16454 10.6132 8.03962H10.6404V6.18041H6.56756C6.62101 7.3833 6.56756 18.9997 6.56756 18.9997L6.56747 19Z" fill="#656565"/>
</g>
<defs>
<clipPath id="clip0_128_269">
<rect width="19" height="19" fill="white"/>
</clipPath>
</defs>
</svg>
